<?xml version="1.0" encoding="utf-8"?>
<!-- Generator: Adobe Illustrator 21.1.0, SVG Export Plug-In . SVG Version: 6.00 Build 0)  -->
<svg version="1.1" id="图层_1" xmlns="http://www.w3.org/2000/svg" xmlns:xlink="http://www.w3.org/1999/xlink" x="0px" y="0px"
	 viewBox="0 0 1280 589.3" style="enable-background:new 0 0 1280 589.3;" xml:space="preserve">
<style type="text/css">
	.st0{fill:#EA5504;}
	.st1{fill:#005E3C;}
</style>
<path class="st0" d="M519.8,356.1h-29.9c-2.6,0-4.7,2.1-4.7,4.7v136.5c-15.6-17.7-119-134.9-121.6-137.7c-2.8-3-6.5-3.5-9-3.5H325
	c-2.7,0-4.7,2.1-4.7,4.7v188.5c0,2.6,2,4.7,4.7,4.7h30c2.5,0,4.7-2.1,4.7-4.7V411.7c11.3,12.8,120,136,122.7,138.8
	c2.8,3,6.5,3.5,9,3.5h28.5c2.6,0,4.7-2.1,4.7-4.7V360.8C524.5,358.2,522.4,356.1,519.8,356.1 M278.2,356.1h-33.3
	c-2.7,0-4.8,2.1-4.8,4.7v188.5c0,2.6,2.1,4.7,4.8,4.7h33.3c2.6,0,4.7-2.1,4.7-4.7V360.8C282.9,358.2,280.8,356.1,278.2,356.1
	 M165.9,454.1c0,2.6-2.1,4.7-4.7,4.7H60.1v-67.9h101.2c2.6,0,4.7,2.2,4.7,4.8L165.9,454.1L165.9,454.1z M143.5,356.1H21.6
	c-2.6,0-4.8,2.1-4.8,4.7v188.5c0,2.6,2.1,4.7,4.8,4.7h33.7c2.6,0,4.7-2.1,4.7-4.7v-55.7h83.4c37.3,0,67.6-22,67.6-55.3v-22.1
	C211.1,383,180.8,356.1,143.5,356.1 M1264.3,356.1h-29.9c-2.6,0-4.7,2.1-4.7,4.7v136.5c-15.6-17.7-119-134.9-121.6-137.7
	c-2.8-3-6.5-3.5-9-3.5h-29.6c-2.6,0-4.8,2.1-4.8,4.7v188.5c0,2.6,2.2,4.7,4.8,4.7h29.9c2.6,0,4.8-2.1,4.8-4.7V411.7
	c11.2,12.8,119.9,136,122.6,138.8c2.8,3,6.5,3.5,9,3.5h28.6c2.6,0,4.8-2.1,4.8-4.7V360.8C1269.1,358.2,1266.9,356.1,1264.3,356.1
	 M692.9,353.4H624c-37.4,0-67.7,26.9-67.7,60.2v82.9c0,33.2,30.3,60.2,67.7,60.2h68.9c37.4,0,67.8-27,67.8-60.2v-53.1H655.9v27.9
	c0,2.7,2.2,4.8,4.8,4.8H718v38.5c0,2.6-2.1,4.7-4.7,4.7H603.6c-2.7,0-4.8-2.1-4.8-4.7V395.7c0-2.6,2.1-4.8,4.8-4.8h109.7
	c2.7,0,4.7,2.2,4.7,4.8v22.7c0,2.6,2.1,4.7,4.8,4.7h33.1c2.6,0,4.8-2.1,4.8-4.7v-4.8C760.7,380.3,730.3,353.4,692.9,353.4
	 M1177.7,166.2c0,9.3-1.7,16.5-13.5,22.4c-9.4,4.7-24.9,12.1-39,18.7c-14-6.6-29.5-14-38.9-18.7c-11.8-5.9-13.5-13.1-13.5-22.4v-10
	h104.8L1177.7,166.2L1177.7,166.2z M1264,123.2h-45V104c0-3-2.4-5.4-5.3-5.4H1183c-2.9,0-5.4,2.4-5.4,5.4v19.2h-104.8V104
	c0-3-2.4-5.4-5.4-5.4h-30.5c-2.9,0-5.4,2.4-5.4,5.4v19.2h-44.9c-2.9,0-5.2,2.3-5.2,5.2V151c0,2.9,2.3,5.2,5.2,5.2h44.9v14.1
	c0,16.4,7.5,32,27.7,41.7c7.7,3.8,17.1,8.3,27.2,13.1c-18,7.3-33.7,10.6-50.4,10.6h-42.5c-2.9,0-5.4,2.4-5.4,5.4v22.3
	c0,3,2.4,5.4,5.4,5.4h41.8c16.7,0,37.1-3.5,54.4-10c7-2.7,20.3-8.5,35.6-15.5c15.3,7,28.6,12.8,35.7,15.5c17.3,6.5,37.7,10,54.4,10
	h41.8c3,0,5.4-2.4,5.4-5.4v-22.3c0-2.9-2.4-5.4-5.4-5.4h-42.4c-16.8,0-32.6-3.3-50.5-10.6c10.1-4.8,19.5-9.3,27.1-13.1
	c20.2-9.8,27.7-25.3,27.7-41.7v-14.1h44.9c2.9,0,5.2-2.3,5.2-5.2v-22.6C1269.1,125.5,1266.8,123.2,1264,123.2 M951.4,361.3
	c-1.8-3.3-4.8-5.5-8.6-5.5h-29.5c-3.7,0-6.7,2.2-8.6,5.5l-93.1,183.3c-3.1,6-0.4,9.5,5.1,9.5h29.5c4.4,0,5.9-1.1,8.1-5.2L928,401.3
	l73.8,147.5c2.2,4.1,3.8,5.2,8.1,5.2h29.4c5.6,0,8.2-3.5,5.1-9.5L951.4,361.3z M893.7,96.5c-4.2,0-7.5,2.2-8.9,4.8l-35.1,68.4
	c-1.3,2.7,0.4,4.8,3.1,4.8H888c4.2,0,7.5-2.2,8.9-4.8l35-68.4c1.3-2.6-0.3-4.8-3-4.8C928.9,96.5,893.7,96.5,893.7,96.5z
	 M597.2,236.2H391.7V71.4h205.5V236.2z M607.4,41.4h-226c-16.8,0-30.5,13.7-30.5,30.6v166.1c0,16.9,13.7,30.6,30.5,30.6h226
	c16.9,0,30.6-13.7,30.6-30.6V72C638,55.1,624.3,41.4,607.4,41.4 M988.5,100h24.4c2.8,0,5.2-2.3,5.2-5.2V79.6h214.5v15.2
	c0,2.9,2.3,5.2,5.1,5.2h24.3c2.9,0,5.3-2.3,5.3-5.2V77.4c0-14.9-12.1-26.9-26.9-26.9H1148V37.9c0-2.9-2.3-5.3-5.2-5.3h-35.1
	c-2.8,0-5.2,2.3-5.2,5.3v12.6h-92.4c-14.8,0-26.9,12-26.9,26.9v17.5C983.2,97.7,985.6,100,988.5,100 M266,193.3h-79.1V100H266V193.3
	z M139.3,193.3H60.1V100h79.2L139.3,193.3L139.3,193.3z M278.6,66.1h-91.8V38.8c0-3-2.3-5.3-5.2-5.3h-37.2c-2.9,0-5.2,2.3-5.2,5.3
	v27.3H47.4c-16.8,0-30.6,13.7-30.6,30.6v99.9c0,16.9,13.8,30.6,30.6,30.6h91.8v43c0,2.9,2.3,5.2,5.2,5.2h37.2c2.9,0,5.2-2.3,5.2-5.2
	v-43h91.8c16.9,0,30.6-13.7,30.6-30.6V96.7C309.2,79.8,295.5,66.1,278.6,66.1 M576.2,177.1h-31v12h-30.6v-27h52.8v-25.5h-52.8v-18.7
	h61.6V90.1H412.7v27.7h61.6v18.7h-52.8V162h52.8v27h-61.6v27.8h163.5V177.1z M737.2,174.5h35.2c2.8,0,4.5-2.2,3.1-4.8l-35-68.4
	c-1.4-2.6-4.6-4.8-8.8-4.8h-35.2c-2.8,0-4.4,2.2-3,4.8l35,68.4C729.7,172.3,732.9,174.5,737.2,174.5 M949.7,192.6H835.3V78.5h105
	c2.9,0,5.2-2.4,5.2-5.3v-22c0-2.9-2.3-5.2-5.2-5.2H684.9c-2.9,0-5.2,2.4-5.2,5.2v22c0,2.9,2.3,5.3,5.2,5.3h105v114.1H675.6
	c-2.9,0-5.2,2.3-5.2,5.2V221c0,2.9,2.3,5.2,5.2,5.2h114.3v44c0,2.9,2.3,5.2,5.2,5.2h35c2.9,0,5.2-2.3,5.2-5.2v-44h114.3
	c2.8,0,5.2-2.3,5.2-5.2v-23.2C954.9,194.9,952.5,192.6,949.7,192.6"/>
<path class="st1" d="M953.5,494.8h-50.9c-2.6,0-4.7,2.2-4.7,4.8v49.7c0,2.6,2.1,4.8,4.7,4.8h50.9c2.6,0,4.7-2.1,4.7-4.8v-49.7
	C958.2,497,956,494.8,953.5,494.8"/>
</svg>
